<svg width="996" height="792" viewBox="0 0 996 792" fill="none" xmlns="http://www.w3.org/2000/svg">
<mask id="path-1-inside-1_387_170" fill="white">
<path d="M453 792C573.143 792 688.365 750.279 773.319 676.014C858.273 601.75 906 501.026 906 396C906 290.974 858.273 190.25 773.319 115.986C688.365 41.7213 573.143 1.58584e-05 453 0L453 396L453 792Z"/>
</mask>
<path d="M453 792C573.143 792 688.365 750.279 773.319 676.014C858.273 601.75 906 501.026 906 396C906 290.974 858.273 190.25 773.319 115.986C688.365 41.7213 573.143 1.58584e-05 453 0L453 396L453 792Z" stroke="black" stroke-opacity="0.32" stroke-width="2" mask="url(#path-1-inside-1_387_170)"/>
<circle cx="905" cy="376" r="91" fill="#2F4858"/>
<path d="M908.344 345.219C906.859 345.219 905.345 345.763 904.273 346.835C903.2 347.907 902.656 349.421 902.656 350.906V353.75C902.656 354.54 903.212 355.18 903.517 355.916C902.987 356.38 902.434 356.757 901.923 357.327C900.843 358.532 899.864 360.048 899.052 361.787C896.813 360.313 894.146 359.438 891.281 359.438C883.462 359.438 877.062 365.837 877.062 373.656H871.375V382.648L880.701 410.625H930.299L939.625 382.648V373.656H936.781H931.094V370.529C931.094 366.83 929.435 363.142 927.456 360.015C926.532 358.556 925.507 357.293 924.423 356.222C924.82 355.404 925.406 354.652 925.406 353.75V350.906C925.406 349.421 924.862 347.907 923.79 346.835C922.718 345.763 921.204 345.219 919.719 345.219H908.344ZM908.344 350.906H919.719V353.75H908.344V350.906ZM908.344 359.438H919.719C919.008 359.438 919.603 359.419 920.296 360.076C920.989 360.733 921.858 361.809 922.646 363.053C924.221 365.543 925.406 368.825 925.406 370.529V373.656H905.5C905.5 370.976 904.704 368.488 903.401 366.341C904.048 364.103 905.097 362.308 906.161 361.12C907.357 359.785 908.747 359.438 908.344 359.438ZM891.281 365.125C896.026 365.125 899.812 368.911 899.812 373.656H882.75C882.75 368.911 886.536 365.125 891.281 365.125ZM877.062 379.344H933.938V381.727L926.201 404.938H884.799L877.062 381.727V379.344ZM905.5 381.01L894.958 391.552L898.979 395.573L902.656 391.896V402.094H908.344V391.896L912.021 395.573L916.042 391.552L905.5 381.01Z" fill="white"/>
</svg>
